<?xml version="1.0" encoding="utf-8"?>
<!-- Generator: Adobe Illustrator 27.5.0, SVG Export Plug-In . SVG Version: 6.00 Build 0)  -->
<svg version="1.1" xmlns="http://www.w3.org/2000/svg" xmlns:xlink="http://www.w3.org/1999/xlink" x="0px" y="0px"
	 viewBox="0 0 500 500" style="enable-background:new 0 0 500 500;" xml:space="preserve">
<g id="Background_Complete">
	<g>
		<rect y="382.398" style="fill:#EBEBEB;" width="500" height="0.25"/>
		<rect x="416.779" y="398.494" style="fill:#EBEBEB;" width="33.122" height="0.25"/>
		<rect x="322.527" y="401.208" style="fill:#EBEBEB;" width="8.693" height="0.25"/>
		<rect x="396.586" y="389.208" style="fill:#EBEBEB;" width="19.192" height="0.25"/>
		<rect x="52.459" y="390.888" style="fill:#EBEBEB;" width="43.193" height="0.25"/>
		<rect x="104.556" y="390.888" style="fill:#EBEBEB;" width="6.333" height="0.25"/>
		<rect x="131.471" y="395.111" style="fill:#EBEBEB;" width="93.676" height="0.25"/>
		<path style="fill:#EBEBEB;" d="M237.014,337.8H43.915c-3.147,0-5.708-2.561-5.708-5.708V60.66c0-3.147,2.561-5.708,5.708-5.708
			h193.099c3.146,0,5.707,2.561,5.707,5.708v271.432C242.721,335.239,240.16,337.8,237.014,337.8z M43.915,55.203
			c-3.01,0-5.458,2.448-5.458,5.458v271.432c0,3.01,2.448,5.458,5.458,5.458h193.099c3.009,0,5.457-2.448,5.457-5.458V60.66
			c0-3.009-2.448-5.458-5.457-5.458H43.915z"/>
		<path style="fill:#EBEBEB;" d="M453.31,337.8H260.212c-3.147,0-5.707-2.561-5.707-5.708V60.66c0-3.147,2.561-5.708,5.707-5.708
			H453.31c3.148,0,5.708,2.561,5.708,5.708v271.432C459.019,335.239,456.458,337.8,453.31,337.8z M260.212,55.203
			c-3.009,0-5.457,2.448-5.457,5.458v271.432c0,3.01,2.448,5.458,5.457,5.458H453.31c3.01,0,5.458-2.448,5.458-5.458V60.66
			c0-3.009-2.448-5.458-5.458-5.458H260.212z"/>
	</g>
	<g>
		<g>
			<g>
				<rect x="271.246" y="96.778" style="fill:#F0F0F0;" width="127.06" height="285.621"/>
				<rect x="273.927" y="96.778" style="fill:#F5F5F5;" width="124.378" height="285.621"/>
				
					<rect x="199.787" y="184.979" transform="matrix(-1.836970e-16 1 -1 -1.836970e-16 575.7046 -96.5282)" style="fill:#F0F0F0;" width="272.658" height="109.219"/>
				<path style="fill:#FAFAFA;" d="M292.24,153.967L292.24,153.967c0-16.445,13.331-29.776,29.776-29.776h28.201
					c16.445,0,29.776,13.331,29.776,29.776l0,0H292.24z"/>
				
					<rect x="303.548" y="282.523" transform="matrix(-1.836970e-16 1 -1 -1.836970e-16 662.5159 -9.7169)" style="fill:#F5F5F5;" width="65.137" height="87.754"/>
				
					<rect x="292.239" y="172.333" transform="matrix(-1 -1.224647e-16 1.224647e-16 -1 623.1856 457.7611)" style="fill:#F5F5F5;" width="38.707" height="113.094"/>
				
					<rect x="341.286" y="172.333" transform="matrix(-1 -1.224647e-16 1.224647e-16 -1 721.2785 457.7611)" style="fill:#F5F5F5;" width="38.707" height="113.094"/>
				<path style="fill:#E0E0E0;" d="M365.955,228.372h15.853c1.353,0,2.459-1.107,2.459-2.459l0,0c0-1.352-1.107-2.459-2.459-2.459
					h-15.853c-1.353,0-2.459,1.107-2.459,2.459l0,0C363.496,227.266,364.603,228.372,365.955,228.372z"/>
				
					<rect x="253.414" y="238.605" transform="matrix(-1.836970e-16 1 -1 -1.836970e-16 629.3313 -150.1549)" style="fill:#F0F0F0;" width="272.658" height="1.966"/>
			</g>
		</g>
		<g>
			<g>
				<path style="fill:#E0E0E0;" d="M70.388,271.434h120.889l0-171.111c0-13.629-120.89-13.629-120.889,0L70.388,271.434z"/>
				<path style="fill:#EBEBEB;" d="M73.166,271.434h120.889l0-171.111c-0.001-13.629-120.89-13.629-120.889,0L73.166,271.434z"/>
				<path style="fill:#FAFAFA;" d="M188.055,262.845l0-159.146c0-1.095-0.683-2.068-1.714-2.439
					c-6.711-2.414-24.982-5.16-52.731-5.16c-27.747,0-46.019,2.746-52.731,5.16c-1.031,0.371-1.714,1.343-1.714,2.439l0,159.146
					c0,1.43,1.159,2.589,2.589,2.589h103.711C186.895,265.434,188.055,264.275,188.055,262.845z"/>
				<g>
					<path style="fill:#FFFFFF;" d="M162.496,97.249l18.85,168.18h-27.53l-18.98-169.33
						C145.536,96.13,154.796,96.579,162.496,97.249z"/>
					<path style="fill:#FFFFFF;" d="M126.896,96.159l18.98,169.27h-15.21l-18.92-168.7
						C116.356,96.449,121.416,96.249,126.896,96.159z"/>
				</g>
				
					<rect x="25.9" y="177.948" transform="matrix(-1.836970e-16 1 -1 -1.836970e-16 293.5559 67.6173)" style="fill:#EBEBEB;" width="174.139" height="5.278"/>
				
					<rect x="68.419" y="177.948" transform="matrix(-1.836970e-16 1 -1 -1.836970e-16 336.0756 25.0977)" style="fill:#EBEBEB;" width="174.139" height="5.278"/>
				
					<rect x="65.303" y="180.11" transform="matrix(-1.836970e-16 1 -1 -1.836970e-16 332.9596 28.2138)" style="fill:#E0E0E0;" width="174.139" height="0.954"/>
				
					<rect x="22.784" y="180.109" transform="matrix(-1.836970e-16 1 -1 -1.836970e-16 290.4399 70.7334)" style="fill:#E0E0E0;" width="174.139" height="0.954"/>
				
					<rect x="77.229" y="131.878" transform="matrix(-1 -1.224647e-16 1.224647e-16 -1 268.4582 269.0344)" style="fill:#EBEBEB;" width="114" height="5.278"/>
			</g>
			
				<rect x="76.229" y="269.823" transform="matrix(-1 -1.224647e-16 1.224647e-16 -1 275.7915 545.4788)" style="fill:#F5F5F5;" width="123.333" height="5.833"/>
			<rect x="70.388" y="269.823" style="fill:#E0E0E0;" width="5.841" height="5.833"/>
		</g>
		
			<rect x="417.018" y="66.752" transform="matrix(-1 -1.224647e-16 1.224647e-16 -1 864.1878 142.0261)" style="fill:#F0F0F0;" width="30.152" height="8.522"/>
		
			<rect x="401.941" y="75.274" transform="matrix(-1 -1.224647e-16 1.224647e-16 -1 834.0354 159.0699)" style="fill:#E6E6E6;" width="30.152" height="8.522"/>
		
			<rect x="204.983" y="192.115" transform="matrix(-1 -1.224647e-16 1.224647e-16 -1 440.1187 392.7523)" style="fill:#F5F5F5;" width="30.153" height="8.522"/>
		
			<rect x="160.257" y="299.366" transform="matrix(-1 -1.224647e-16 1.224647e-16 -1 350.6672 607.2535)" style="fill:#F5F5F5;" width="30.152" height="8.522"/>
		<rect x="417.018" y="308.895" style="fill:#E6E6E6;" width="30.152" height="8.522"/>
		
			<rect x="189.907" y="40.091" transform="matrix(-1 -1.224647e-16 1.224647e-16 -1 409.9662 88.7048)" style="fill:#F0F0F0;" width="30.152" height="8.522"/>
		
			<rect x="79.165" y="351.105" transform="matrix(-1 -1.224647e-16 1.224647e-16 -1 188.4832 710.7316)" style="fill:#F5F5F5;" width="30.152" height="8.522"/>
		
			<rect x="55.311" y="289.25" transform="matrix(-1 -1.224647e-16 1.224647e-16 -1 140.7752 587.0211)" style="fill:#F5F5F5;" width="30.152" height="8.522"/>
		
			<rect x="94.242" y="359.627" transform="matrix(-1 -1.224647e-16 1.224647e-16 -1 218.6356 727.7755)" style="fill:#F0F0F0;" width="30.152" height="8.522"/>
		<rect x="73.165" y="67.985" style="fill:#F0F0F0;" width="30.152" height="8.522"/>
	</g>
</g>
<g id="Background_Simple" style="display:none;">
	<g style="display:inline;">
		<path style="fill:#407BFF;" d="M226.919,208.601c58.609-41.923,211.922,10.219,196.871-103.025
			C413.111,25.234,255.708-8.416,216.959,66.035c-23.453,45.063-17.461,39.307-70.089,60.938
			c-53.333,21.921-73.974,35.555-59.188,95.239c7.652,30.887,35.091,85.099,79.4,81.232
			C222.497,298.608,191.114,234.212,226.919,208.601z"/>
		<path style="opacity:0.9;fill:#FFFFFF;" d="M226.919,208.601c58.609-41.923,211.922,10.219,196.871-103.025
			C413.111,25.234,255.708-8.416,216.959,66.035c-23.453,45.063-17.461,39.307-70.089,60.938
			c-53.333,21.921-73.974,35.555-59.188,95.239c7.652,30.887,35.091,85.099,79.4,81.232
			C222.497,298.608,191.114,234.212,226.919,208.601z"/>
	</g>
</g>
<g id="Shadow_1_">
	<ellipse id="_x3C_Path_x3E__160_" style="fill:#F5F5F5;" cx="250" cy="416.238" rx="193.889" ry="11.323"/>
</g>
<g id="Character_1_">
	<g>
		<g>
			<path style="fill:#263238;" d="M132.136,127.327c-5.913,1.317-12.796,9.613-6.001,18.085c6.795,8.472-4.589,4.765-6.354,19.591
				s11.737,12.328,7.501,22.049c-4.236,9.721,25.183,25.122,43.551,13.448c18.368-11.674,20.078-36.802,14.341-45.68
				c-5.736-8.879-14.12-9.435-10.325-18.953c3.795-9.517-0.677-19.401-12.531-19.49c-8.937-0.066-3.577-6.32-15.881-6.266
				C136.182,110.157,127.106,117.361,132.136,127.327z"/>
			<path style="fill:#FFFFFF;" d="M165.052,139.719c-1.61,0-2.91,1.3-2.91,2.92c0,1.61,1.3,2.91,2.91,2.91
				c1.61,0,2.92-1.3,2.92-2.91C167.972,141.019,166.662,139.719,165.052,139.719z M165.052,144.869c-1.23,0-2.23-1-2.23-2.23
				c0-1.24,1-2.24,2.23-2.24c1.24,0,2.24,1,2.24,2.24C167.292,143.869,166.292,144.869,165.052,144.869z"/>
			<path style="fill:#263238;" d="M189.667,168.167c-0.016,0-0.032-0.001-0.047-0.004c-0.136-0.026-0.224-0.157-0.199-0.293
				c0.896-4.659-2.732-9.171-6.573-13.947c-4.483-5.575-9.564-11.894-7.775-19.418c1.527-6.42,0.845-11.783-1.919-15.101
				c-2.263-2.717-5.79-3.969-10.481-3.728c-4.301,0.222-5.576-0.942-6.925-2.175c-1.458-1.332-3.139-2.849-9.31-2.806
				c-0.001,0-0.001,0-0.001,0c-0.137,0-0.249-0.111-0.25-0.248c-0.001-0.138,0.111-0.251,0.249-0.252
				c0.073,0,0.146-0.001,0.217-0.001c6.22,0,7.926,1.56,9.433,2.938c1.325,1.211,2.471,2.259,6.562,2.045
				c4.854-0.25,8.521,1.063,10.891,3.907c2.867,3.442,3.585,8.96,2.021,15.537c-1.733,7.286,3.051,13.236,7.678,18.989
				c3.916,4.869,7.614,9.469,6.675,14.355C189.889,168.083,189.784,168.167,189.667,168.167z"/>
			<path style="fill:#FFC3BD;" d="M213.184,149.059l-1.349,2.619c-0.507,0.985-0.507,2.154,0.001,3.139l2.372,4.602
				c0.948,1.84,2.729,3.107,4.778,3.399l1.269,0.181c2.534-4.191,2.184-10.587,2.184-10.587l0.103-1.834
				c0.091-1.633-1.055-2.977-2.633-3.086l-3.632-0.25C215.022,147.156,213.791,147.879,213.184,149.059z"/>
			<g>
				<path style="fill:#407BFF;" d="M183.414,166.567c-0.052-0.043,0.055,0.109,0.104,0.186l0.212,0.305l0.481,0.646
					c0.335,0.438,0.708,0.869,1.087,1.299c0.76,0.86,1.571,1.703,2.416,2.511c1.692,1.62,3.563,3.054,5.509,4.332
					c3.892,2.576,8.241,4.329,12.76,5.046l0.85,0.117l0.425,0.061c0.046,0.005-0.072,0.004-0.104,0.018
					c-0.23,0.02-0.515,0.136-0.607,0.227c-0.191,0.181,0.272-0.086,0.712-0.746c0.953-1.322,1.818-3.588,2.465-5.885
					c0.64-2.335,1.127-4.833,1.469-7.368c0.184-1.268,0.293-2.553,0.405-3.835c0.107-1.261,0.191-2.62,0.195-3.773l11.515,0.556
					c-0.146,1.566-0.296,2.921-0.464,4.369c-0.167,1.426-0.387,2.845-0.589,4.273c-0.438,2.853-0.943,5.72-1.693,8.651
					c-0.366,1.469-0.799,2.956-1.354,4.479c-0.571,1.522-1.217,3.096-2.224,4.75c-1.02,1.619-2.385,3.499-4.995,4.971
					c-1.302,0.713-2.932,1.194-4.524,1.255c-0.372,0.014-0.831,0.003-1.124-0.011l-0.591-0.04l-1.182-0.082
					c-3.148-0.287-6.265-0.903-9.288-1.79c-3.007-0.928-5.939-2.079-8.722-3.496c-2.795-1.401-5.42-3.076-7.954-4.888
					c-1.267-0.909-2.499-1.871-3.703-2.897c-0.605-0.511-1.193-1.045-1.793-1.597l-0.903-0.856l-0.462-0.462
					c-0.173-0.182-0.287-0.289-0.553-0.596L183.414,166.567z"/>
				<path style="opacity:0.5;fill:#FFFFFF;" d="M183.414,166.567c-0.052-0.043,0.055,0.109,0.104,0.186l0.212,0.305l0.481,0.646
					c0.335,0.438,0.708,0.869,1.087,1.299c0.76,0.86,1.571,1.703,2.416,2.511c1.692,1.62,3.563,3.054,5.509,4.332
					c3.892,2.576,8.241,4.329,12.76,5.046l0.85,0.117l0.425,0.061c0.046,0.005-0.072,0.004-0.104,0.018
					c-0.23,0.02-0.515,0.136-0.607,0.227c-0.191,0.181,0.272-0.086,0.712-0.746c0.953-1.322,1.818-3.588,2.465-5.885
					c0.64-2.335,1.127-4.833,1.469-7.368c0.184-1.268,0.293-2.553,0.405-3.835c0.107-1.261,0.191-2.62,0.195-3.773l11.515,0.556
					c-0.146,1.566-0.296,2.921-0.464,4.369c-0.167,1.426-0.387,2.845-0.589,4.273c-0.438,2.853-0.943,5.72-1.693,8.651
					c-0.366,1.469-0.799,2.956-1.354,4.479c-0.571,1.522-1.217,3.096-2.224,4.75c-1.02,1.619-2.385,3.499-4.995,4.971
					c-1.302,0.713-2.932,1.194-4.524,1.255c-0.372,0.014-0.831,0.003-1.124-0.011l-0.591-0.04l-1.182-0.082
					c-3.148-0.287-6.265-0.903-9.288-1.79c-3.007-0.928-5.939-2.079-8.722-3.496c-2.795-1.401-5.42-3.076-7.954-4.888
					c-1.267-0.909-2.499-1.871-3.703-2.897c-0.605-0.511-1.193-1.045-1.793-1.597l-0.903-0.856l-0.462-0.462
					c-0.173-0.182-0.287-0.289-0.553-0.596L183.414,166.567z"/>
			</g>
			<path style="fill:#FFC3BD;" d="M159.406,408.264c-1.456-3.265-0.446-16.988-0.245-19.238c-2.535-1.324-11.227,0.309-11.227,0.309
				s2.427,14.429,0.971,18.93C152.257,410.117,159.406,408.264,159.406,408.264z"/>
			<path style="fill:#FFC3BD;" d="M266.765,395.1c-2.743-2.293-8.504-14.819-9.313-16.929c-2.858-0.075-9.313,4.969-9.313,4.969
				s8.522,11.893,9.192,16.576C261.159,399.907,266.765,395.1,266.765,395.1z"/>
			<path style="fill:#407BFF;" d="M168.315,416.228c-7.315,0-8.565-0.113-12.675-0.251c-3.519-0.126-4.361,0.314-7.189,0.251
				c-2.363-0.05-2.275-2.313-1.546-4.915c0.259-0.929,0.62-2.004,0.987-3.306c0.286-1.014,1.219-1.708,2.273-1.708h8.028
				c0.738,0,1.412,0.359,1.876,0.933c1.945,2.407,6.129,4.169,9.793,4.661C173.795,412.42,171.231,416.228,168.315,416.228z"/>
			<path style="fill:#407BFF;" d="M281.201,400.688c-7.868,3.559-12.003,1.75-15.951,2.652c-3.386,0.766-3.279,1.403-6.655,2.366
				c-2.237,0.638-3.381-1.76-3.189-3.857c0.124-1.361,0.269-2.938,0.238-4.594c-0.012-0.606,0.32-1.166,0.872-1.417l7.826-3.547
				c0.517-0.234,1.114-0.16,1.558,0.194c3.118,2.492,9.97,5.628,14.775,4.009C284.392,395.253,283.824,399.501,281.201,400.688z"/>
			<path style="fill:#263238;" d="M194.396,222.341c0,0,18.477,42.406,28.639,73.68c12.411,28.278,37.278,87.61,37.278,87.61
				c0.482,1.509-7.37,4.274-9.075,3.989c0,0-32.815-39.364-46.179-84.074c-34.749-43.594-44.978-78.592-44.978-78.592
				L194.396,222.341z"/>
			<path style="opacity:0.2;" d="M179.584,245.562c5.094,5.585,8.687,24.99,10.519,37.67c-7.196-10.598-12.83-20.296-17.174-28.613
				C173.44,249.876,175.521,246.393,179.584,245.562z"/>
			<path style="fill:#263238;" d="M184.107,223.125c0,0,1.316,58.911-3.809,87.93c-5.383,30.477-22.026,67.233-20.85,87.235
				c-1.714,0.995-7.736,1.055-11.111,0c0,0-5.754-59.391,11.55-88.376c-3.744-29.023-13.731-66.609-4.863-84.574L184.107,223.125z"
				/>
			<g>
				<path style="fill:#263238;" d="M160.288,394.125c0.032,1.009,0.124,2.767,0.386,4.108c0.094,0.484-0.232,0.932-0.719,1.01
					c-4.067,0.651-9.952-0.292-11.82-0.628c-0.358-0.064-0.629-0.348-0.686-0.707l-0.606-3.843
					c-0.083-0.525,0.329-0.998,0.861-0.988l11.746,0.226C159.906,393.312,160.273,393.67,160.288,394.125z"/>
				<path style="opacity:0.1;fill:#FFFFFF;" d="M160.288,394.125c0.032,1.009,0.124,2.767,0.386,4.108
					c0.094,0.484-0.232,0.932-0.719,1.01c-4.067,0.651-9.952-0.292-11.82-0.628c-0.358-0.064-0.629-0.348-0.686-0.707l-0.606-3.843
					c-0.083-0.525,0.329-0.998,0.861-0.988l11.746,0.226C159.906,393.312,160.273,393.67,160.288,394.125z"/>
			</g>
			<g>
				<path style="fill:#263238;" d="M259.417,379.278c0.504,0.948,1.411,2.635,2.13,3.86c0.238,0.405,0.103,0.914-0.297,1.16
					c-2.996,1.845-8.313,3.703-10.068,4.293c-0.348,0.117-0.728-0.003-0.949-0.296l-2.385-3.147
					c-0.325-0.429-0.178-1.049,0.306-1.285l10.137-4.947C258.705,378.715,259.201,378.871,259.417,379.278z"/>
				<path style="opacity:0.1;fill:#FFFFFF;" d="M259.417,379.278c0.504,0.948,1.411,2.635,2.13,3.86
					c0.238,0.405,0.103,0.914-0.297,1.16c-2.996,1.845-8.313,3.703-10.068,4.293c-0.348,0.117-0.728-0.003-0.949-0.296l-2.385-3.147
					c-0.325-0.429-0.178-1.049,0.306-1.285l10.137-4.947C258.705,378.715,259.201,378.871,259.417,379.278z"/>
			</g>
			<g>
				<path style="fill:#407BFF;" d="M186.543,172.424c0.977,3.759,2.557,7.89,4.458,16.976c1.754,7.651,3.028,21.105,3.396,32.941
					c-5.135,4.579-22.225,3.801-39.371,2.998c-0.053-11.151-4.631-21.439-17.089-44.273c-2.889-5.294-0.548-11.54,5.028-13.417
					c1.49-0.501,3.079-0.998,4.721-1.456c6.385-1.779,11.631-3.189,17.484-3.972c1.94-0.26,3.963-0.468,5.906-0.634
					C178.085,160.988,184.792,165.688,186.543,172.424z"/>
				<path style="opacity:0.5;fill:#FFFFFF;" d="M186.543,172.424c0.977,3.759,2.557,7.89,4.458,16.976
					c1.754,7.651,3.028,21.105,3.396,32.941c-5.135,4.579-22.225,3.801-39.371,2.998c-0.053-11.151-4.631-21.439-17.089-44.273
					c-2.889-5.294-0.548-11.54,5.028-13.417c1.49-0.501,3.079-0.998,4.721-1.456c6.385-1.779,11.631-3.189,17.484-3.972
					c1.94-0.26,3.963-0.468,5.906-0.634C178.085,160.988,184.792,165.688,186.543,172.424z"/>
			</g>
			<path style="fill:#FFFFFF;" d="M166.302,162.197l-17.656,3.779c0,0,14.287,5.956,25.729,15.149
				C177.5,165.417,166.302,162.197,166.302,162.197z"/>
			<path style="fill:#FFC3BD;" d="M144.439,146.229c2.8,5.28,7.011,15.163,4.207,19.747c0,0,15.937,4.607,24.437,11.911
				c1.132-11.814-6.781-15.69-6.781-15.69c-6.725-0.048-8.139-4.853-8.365-9.398L144.439,146.229z"/>
			<path style="fill:#FFFFFF;" d="M159.411,167.495c-5.06,0-10.521-1.208-10.819-1.275c-0.135-0.03-0.219-0.164-0.189-0.299
				c0.03-0.135,0.165-0.218,0.299-0.189c0.094,0.021,9.53,2.107,15.021,0.857c1.751-0.399,2.773-1.041,3.039-1.908
				c0.358-1.167-0.781-2.402-0.793-2.414c-0.094-0.101-0.089-0.259,0.012-0.354c0.101-0.094,0.259-0.089,0.354,0.012
				c0.055,0.059,1.347,1.461,0.906,2.902c-0.322,1.051-1.468,1.807-3.406,2.249C162.508,167.379,160.979,167.495,159.411,167.495z"
				/>
			<path style="fill:#407BFF;" d="M166.517,167.632L166.517,167.632c-0.422,0.318-1.027,0.233-1.345-0.189l-0.548-0.727
				c-0.318-0.422-0.233-1.027,0.189-1.345l0,0c0.422-0.318,1.027-0.233,1.345,0.189l0.548,0.727
				C167.024,166.708,166.939,167.314,166.517,167.632z"/>
			<path style="opacity:0.2;" d="M149.943,148.911l7.988,3.885c0.05,1.077,0.162,2.154,0.397,3.173
				c-2.501,0.204-6.587-1.634-7.598-4.043C150.225,150.725,149.915,149.53,149.943,148.911z"/>
			<path style="fill:#FFC3BD;" d="M136.384,138.22c4.113,8.539,5.67,12.23,11.964,15.162c9.468,4.41,19.15-1.88,17.694-11.323
				c-1.311-8.5-7.816-21.036-17.885-21.509C138.238,120.083,132.271,129.681,136.384,138.22z"/>
			<path style="fill:#263238;" d="M139.991,125.82c4.471,6.354,4.243,16.768-1.026,18.18c-8.034-1.236-9.741-3.313-9.741-3.313
				S131.818,121.1,139.991,125.82z"/>
			<path style="fill:#263238;" d="M133.695,128.429c11.826,1.509,21.239-3.433,23.004-6.198
				C145.992,114.995,134.872,121.155,133.695,128.429z"/>
			<path style="fill:#ED847E;" d="M158.377,133.287c0,0,2.592,2.716,4.61,3.758c-0.577,1.239-2.395,1.401-2.395,1.401
				L158.377,133.287z"/>
			<path style="fill:#263238;" d="M157.808,142.39c0.408-0.065,0.832-0.17,1.271-0.323c0.118-0.041,0.173-0.171,0.122-0.29
				c-0.051-0.118-0.185-0.181-0.307-0.14c-3.203,1.124-5.667-0.596-5.692-0.613c-0.107-0.077-0.253-0.059-0.324,0.041
				c-0.072,0.099-0.043,0.243,0.064,0.319C153.038,141.451,155.021,142.837,157.808,142.39z"/>
			<path style="fill:#FFC3BD;" d="M136.906,146.999c1.865,1.041,3.821,1.131,5.227,0.636c2.115-0.746,1.492-3.329-0.502-4.973
				c-1.795-1.48-5.059-2.875-6.505-1.236C133.701,143.04,134.774,145.809,136.906,146.999z"/>
			<path style="fill:#FFFFFF;" d="M140.678,147.522c-1.61,0-2.91,1.3-2.91,2.92c0,1.61,1.3,2.91,2.91,2.91
				c1.61,0,2.92-1.3,2.92-2.91C143.598,148.822,142.288,147.522,140.678,147.522z M140.678,152.672c-1.23,0-2.23-1-2.23-2.23
				c0-1.24,1-2.24,2.23-2.24c1.24,0,2.24,1,2.24,2.24C142.918,151.672,141.918,152.672,140.678,152.672z"/>
			<path style="fill:#263238;" d="M147.192,132.621c0.102-0.066,0.174-0.17,0.192-0.296c0.277-1.962,1.845-2.63,1.863-2.638
				c0.233-0.098,0.336-0.36,0.223-0.587c-0.113-0.226-0.397-0.33-0.635-0.233c-0.082,0.035-2.051,0.871-2.394,3.306
				c-0.034,0.243,0.149,0.474,0.41,0.516C146.976,132.709,147.097,132.682,147.192,132.621z"/>
			<path style="fill:#263238;" d="M161.395,127.324c0.114-0.014,0.22-0.068,0.292-0.163c0.149-0.194,0.1-0.481-0.11-0.641
				c-2.105-1.598-4.121-0.99-4.207-0.963c-0.24,0.076-0.358,0.331-0.264,0.571c0.094,0.239,0.365,0.372,0.605,0.298
				c0.079-0.025,1.65-0.474,3.324,0.798C161.145,127.306,161.274,127.338,161.395,127.324z"/>
		</g>
		<path style="fill:#263238;" d="M161.248,130.696c0.256,0.743,0.069,1.479-0.419,1.642c-0.488,0.163-1.092-0.307-1.348-1.05
			c-0.256-0.744-0.069-1.479,0.42-1.642C160.388,129.482,160.992,129.952,161.248,130.696z"/>
		<path style="fill:#263238;" d="M152.579,134.266c0.257,0.743,0.069,1.479-0.419,1.642c-0.488,0.163-1.092-0.307-1.348-1.05
			c-0.257-0.744-0.069-1.479,0.419-1.642C151.719,133.052,152.322,133.523,152.579,134.266z"/>
		<path style="fill:#263238;" d="M150.811,133.651l0.814-1.758C151.625,131.893,152.098,133.567,150.811,133.651z"/>
		<path style="fill:#263238;" d="M159.424,130.187l0.814-1.758C160.238,128.429,160.711,130.104,159.424,130.187z"/>
		<path style="opacity:0.5;fill:#407BFF;" d="M148.957,182.148l-8.673,3.262c3.569,6.619,6.396,12.105,8.568,16.859
			C147.951,191.753,148.957,182.148,148.957,182.148z"/>
		<g>
			
				<rect x="203.336" y="251.826" transform="matrix(-1 -1.224647e-16 1.224647e-16 -1 418.085 668.0642)" style="fill:#407BFF;" width="11.413" height="164.412"/>
			<polygon style="opacity:0.2;" points="203.336,251.826 214.749,251.826 214.749,279.478 203.336,276.536 			"/>
			<path style="fill:#407BFF;" d="M168.271,272.3h101.781v-19.062c0-14.427-11.695-26.122-26.122-26.122h-49.538
				c-14.427,0-26.122,11.695-26.122,26.122V272.3z"/>
			<path style="fill:#FFC3BD;" d="M175.775,241.064l-1.69-2.413c-0.636-0.907-1.671-1.452-2.779-1.461l-5.177-0.043
				c-2.07-0.017-4.02,0.969-5.232,2.647l-0.751,1.039c2.53,4.194,8.354,6.861,8.354,6.861l1.576,0.945
				c1.404,0.84,3.126,0.452,3.957-0.894l1.912-3.098C176.604,243.577,176.538,242.151,175.775,241.064z"/>
			<g>
				<path style="fill:#407BFF;" d="M152.203,179.681c-0.261,0.544-0.604,1.346-0.898,2.051l-0.889,2.214
					c-0.577,1.49-1.122,2.999-1.629,4.515c-1.012,3.033-1.831,6.104-2.463,9.142c-0.304,1.518-0.556,3.027-0.743,4.517
					c-0.16,1.484-0.252,2.944-0.257,4.352c-0.001,2.801,0.431,5.379,1.27,7.174l0.375,0.802c0.031,0.065,0.056,0.138,0.074,0.205
					c0.413,1.599,1.514,3.594,2.91,5.497c1.401,1.921,3.085,3.823,4.902,5.646c1.838,1.809,3.804,3.559,5.849,5.236
					c1.023,0.838,2.077,1.645,3.137,2.438c1.042,0.781,2.179,1.591,3.169,2.243l-5.673,8.958c-1.352-0.855-2.506-1.629-3.732-2.465
					c-1.205-0.825-2.388-1.679-3.568-2.544c-2.364-1.726-4.674-3.553-6.922-5.529c-2.255-1.973-4.465-4.075-6.541-6.508
					c-1.041-1.207-2.039-2.527-2.977-3.97c-0.93-1.451-1.828-3.026-2.536-4.873l0.448,1.007c-2.455-4.28-3.266-8.646-3.614-12.68
					c-0.303-4.058-0.096-7.919,0.315-11.678c0.431-3.754,1.106-7.404,1.922-10.997c0.404-1.799,0.848-3.583,1.335-5.36
					c0.242-0.889,0.499-1.776,0.766-2.668c0.278-0.916,0.526-1.727,0.895-2.783L152.203,179.681z"/>
				<path style="opacity:0.5;fill:#FFFFFF;" d="M152.203,179.681c-0.261,0.544-0.604,1.346-0.898,2.051l-0.889,2.214
					c-0.577,1.49-1.122,2.999-1.629,4.515c-1.012,3.033-1.831,6.104-2.463,9.142c-0.304,1.518-0.556,3.027-0.743,4.517
					c-0.16,1.484-0.252,2.944-0.257,4.352c-0.001,2.801,0.431,5.379,1.27,7.174l0.375,0.802c0.031,0.065,0.056,0.138,0.074,0.205
					c0.413,1.599,1.514,3.594,2.91,5.497c1.401,1.921,3.085,3.823,4.902,5.646c1.838,1.809,3.804,3.559,5.849,5.236
					c1.023,0.838,2.077,1.645,3.137,2.438c1.042,0.781,2.179,1.591,3.169,2.243l-5.673,8.958c-1.352-0.855-2.506-1.629-3.732-2.465
					c-1.205-0.825-2.388-1.679-3.568-2.544c-2.364-1.726-4.674-3.553-6.922-5.529c-2.255-1.973-4.465-4.075-6.541-6.508
					c-1.041-1.207-2.039-2.527-2.977-3.97c-0.93-1.451-1.828-3.026-2.536-4.873l0.448,1.007c-2.455-4.28-3.266-8.646-3.614-12.68
					c-0.303-4.058-0.096-7.919,0.315-11.678c0.431-3.754,1.106-7.404,1.922-10.997c0.404-1.799,0.848-3.583,1.335-5.36
					c0.242-0.889,0.499-1.776,0.766-2.668c0.278-0.916,0.526-1.727,0.895-2.783L152.203,179.681z"/>
			</g>
			
				<rect x="168.271" y="254.062" transform="matrix(-1 -1.224647e-16 1.224647e-16 -1 386.0801 520.7141)" style="opacity:0.1;fill:#FFFFFF;" width="49.537" height="12.59"/>
			<path style="opacity:0.2;" d="M217.809,272.3v-19.062c0-14.427,11.695-26.122,26.122-26.122s26.122,11.695,26.122,26.122V272.3"
				/>
			
				<rect x="217.809" y="272.3" transform="matrix(-1 -1.224647e-16 1.224647e-16 -1 507.0998 547.9539)" style="fill:#407BFF;" width="71.482" height="3.353"/>
			
				<rect x="237.047" y="272.3" transform="matrix(-1 -1.224647e-16 1.224647e-16 -1 526.3383 547.9539)" style="opacity:0.2;" width="52.244" height="3.353"/>
			
				<rect x="209.042" y="214.497" transform="matrix(-1 -1.224647e-16 1.224647e-16 -1 419.9383 473.118)" style="fill:#E0E0E0;" width="1.853" height="44.125"/>
			<path style="fill:#407BFF;" d="M198.512,223.057h12.943v-6.332c0-0.467-0.379-0.846-0.846-0.846h-12.098l2.118,3.589
				L198.512,223.057z"/>
		</g>
	</g>
</g>
<g id="Message">
	<g>
		<g>
			<g>
				<polygon style="fill:#407BFF;" points="412.222,59.806 341.847,75.847 332.833,81.417 				"/>
				<polyline style="opacity:0.2;" points="341.847,75.847 332.833,81.417 412.222,59.806 				"/>
			</g>
			<polygon style="fill:#407BFF;" points="412.222,59.806 341.847,75.847 348.472,80.722 			"/>
			<g>
				<g>
					<path style="fill:#407BFF;" d="M375.913,73.673l-35.304-1.45c-1.771-0.073-3.16-1.581-3.087-3.352l0.657-15.986
						c0.073-1.771,1.581-3.16,3.352-3.087l35.303,1.45c1.771,0.073,3.16,1.581,3.087,3.352l-0.657,15.986
						C379.192,72.356,377.684,73.745,375.913,73.673z"/>
					<path style="opacity:0.8;fill:#FFFFFF;" d="M375.913,73.673l-35.304-1.45c-1.771-0.073-3.16-1.581-3.087-3.352l0.657-15.986
						c0.073-1.771,1.581-3.16,3.352-3.087l35.303,1.45c1.771,0.073,3.16,1.581,3.087,3.352l-0.657,15.986
						C379.192,72.356,377.684,73.745,375.913,73.673z"/>
				</g>
				<path style="opacity:0.4;fill:#407BFF;" d="M358.567,66.009c-0.1,0-0.199-0.03-0.284-0.088l-18.247-12.593
					c-0.227-0.157-0.284-0.468-0.128-0.695c0.157-0.227,0.468-0.284,0.696-0.128l17.988,12.414l18.945-10.896
					c0.24-0.138,0.545-0.055,0.683,0.184c0.138,0.239,0.055,0.545-0.184,0.683l-19.218,11.054
					C358.739,65.987,358.653,66.009,358.567,66.009z"/>
				<path style="opacity:0.4;fill:#407BFF;" d="M377.131,70.886c-0.098,0-0.198-0.029-0.285-0.089l-10.459-7.269
					c-0.227-0.158-0.283-0.469-0.125-0.696c0.158-0.226,0.469-0.282,0.696-0.125l10.459,7.269c0.227,0.158,0.283,0.469,0.125,0.696
					C377.445,70.812,377.289,70.886,377.131,70.886z"/>
				<path style="opacity:0.4;fill:#407BFF;" d="M339.666,69.347c-0.173,0-0.34-0.089-0.433-0.249
					c-0.138-0.239-0.057-0.545,0.182-0.683l11.02-6.387c0.239-0.139,0.545-0.057,0.683,0.182c0.138,0.239,0.057,0.545-0.182,0.683
					l-11.021,6.386C339.837,69.326,339.751,69.347,339.666,69.347z"/>
			</g>
			<polygon style="fill:#407BFF;" points="412.222,59.806 351.889,72.139 348.472,80.722 			"/>
			<polygon style="opacity:0.2;" points="412.222,59.806 351.889,72.139 348.472,80.722 			"/>
			<polygon style="fill:#407BFF;" points="412.222,59.806 351.889,72.139 370.889,79.028 			"/>
		</g>
		<g>
			<g>
				<path style="fill:#407BFF;" d="M328.583,88.326c-0.227,0-0.432-0.155-0.486-0.385c-0.063-0.269,0.104-0.538,0.372-0.601
					c1.123-0.264,2.22-0.611,3.258-1.031c0.257-0.103,0.547,0.021,0.651,0.276c0.104,0.256-0.02,0.547-0.276,0.651
					c-1.086,0.439-2.231,0.801-3.404,1.077C328.66,88.322,328.621,88.326,328.583,88.326z"/>
				<path style="fill:#407BFF;" d="M291.003,261.075c-0.265,0-0.486-0.208-0.499-0.476c-0.013-0.276,0.199-0.51,0.475-0.524
					c2.314-0.112,4.673-0.326,7.009-0.633c0.272-0.037,0.525,0.156,0.561,0.43c0.036,0.274-0.156,0.525-0.43,0.561
					c-2.363,0.311-4.749,0.527-7.09,0.641C291.02,261.075,291.012,261.075,291.003,261.075z M305.026,259.23
					c-0.23,0-0.438-0.16-0.488-0.394c-0.058-0.27,0.113-0.536,0.383-0.595c2.354-0.509,4.641-1.113,6.798-1.794
					c0.263-0.083,0.544,0.063,0.627,0.326c0.083,0.263-0.063,0.544-0.326,0.627c-2.186,0.69-4.504,1.302-6.888,1.818
					C305.096,259.227,305.06,259.23,305.026,259.23z M318.482,254.909c-0.19,0-0.371-0.108-0.455-0.292
					c-0.115-0.251-0.004-0.548,0.247-0.663c1.824-0.833,3.468-1.727,4.887-2.658c0.396-0.26,0.792-0.524,1.185-0.793
					c0.229-0.156,0.539-0.097,0.695,0.131c0.155,0.228,0.097,0.539-0.131,0.695c-0.398,0.272-0.799,0.539-1.2,0.803
					c-1.461,0.958-3.15,1.877-5.02,2.731C318.622,254.895,318.552,254.909,318.482,254.909z M330.248,247.119
					c-0.14,0-0.279-0.059-0.378-0.173c-0.181-0.209-0.158-0.525,0.051-0.705c1.856-1.608,3.51-3.279,4.914-4.968
					c0.177-0.212,0.492-0.241,0.704-0.065c0.212,0.177,0.241,0.492,0.065,0.704c-1.439,1.731-3.131,3.441-5.028,5.085
					C330.48,247.079,330.364,247.119,330.248,247.119z M339.138,236.218c-0.077,0-0.155-0.018-0.228-0.055
					c-0.246-0.126-0.343-0.427-0.217-0.673c0.323-0.63,0.623-1.275,0.892-1.918c0.607-1.449,1.113-2.997,1.503-4.6
					c0.065-0.268,0.337-0.433,0.604-0.367c0.268,0.065,0.433,0.336,0.367,0.604c-0.403,1.654-0.925,3.252-1.552,4.75
					c-0.279,0.666-0.59,1.335-0.924,1.987C339.495,236.119,339.32,236.218,339.138,236.218z M342.609,222.598
					c-0.011,0-0.023,0-0.034-0.001c-0.275-0.019-0.484-0.257-0.465-0.532c0.092-1.364,0.137-2.802,0.137-4.397
					c0-0.875-0.014-1.752-0.036-2.631c-0.007-0.276,0.211-0.506,0.487-0.513c0.278-0.027,0.506,0.21,0.513,0.487
					c0.023,0.887,0.037,1.773,0.037,2.656c0,1.617-0.045,3.078-0.139,4.464C343.09,222.396,342.87,222.598,342.609,222.598z
					 M342.417,208.453c-0.266,0-0.487-0.209-0.499-0.478c-0.091-2.034-0.176-4.216-0.176-6.399l0.003-0.702
					c0.002-0.276,0.193-0.516,0.504-0.496c0.276,0.002,0.498,0.228,0.496,0.504l-0.003,0.695c0,2.162,0.084,4.332,0.175,6.354
					c0.012,0.276-0.201,0.509-0.477,0.522C342.433,208.452,342.425,208.453,342.417,208.453z M385.173,202.293
					c-0.909,0-1.799-0.023-2.654-0.061c-0.276-0.012-0.49-0.245-0.478-0.521c0.012-0.276,0.246-0.49,0.521-0.478
					c0.841,0.037,1.716,0.06,2.611,0.06c1.569,0,3.044-0.074,4.385-0.218c0.273-0.031,0.521,0.169,0.551,0.443
					c0.03,0.275-0.169,0.521-0.443,0.551C388.29,202.217,386.778,202.293,385.173,202.293z M375.478,201.784
					c-0.013,0-0.026,0-0.039-0.001c-2.344-0.18-4.719-0.394-7.062-0.635c-0.275-0.028-0.474-0.274-0.446-0.549
					c0.028-0.275,0.272-0.479,0.549-0.446c2.334,0.24,4.701,0.453,7.036,0.633c0.275,0.021,0.481,0.261,0.46,0.537
					C375.956,201.585,375.737,201.784,375.478,201.784z M396.45,200.352c-0.19,0-0.372-0.109-0.456-0.294
					c-0.114-0.251-0.002-0.548,0.249-0.662c2.245-1.017,3.956-2.469,5.085-4.317c0.144-0.236,0.451-0.31,0.688-0.166
					c0.236,0.144,0.31,0.452,0.166,0.688c-1.236,2.022-3.095,3.605-5.526,4.706C396.589,200.338,396.519,200.352,396.45,200.352z
					 M361.4,200.334c-0.022,0-0.043-0.001-0.065-0.004c-2.329-0.301-4.691-0.637-7.02-1c-0.273-0.042-0.46-0.298-0.417-0.571
					c0.043-0.273,0.297-0.459,0.571-0.417c2.32,0.361,4.674,0.696,6.994,0.996c0.274,0.035,0.467,0.286,0.432,0.56
					C361.862,200.15,361.647,200.334,361.4,200.334z M347.414,198.157c-0.03,0-0.06-0.003-0.09-0.008
					c-2.312-0.421-4.654-0.879-6.959-1.361c-0.27-0.057-0.444-0.322-0.387-0.592c0.057-0.27,0.322-0.442,0.592-0.387
					c2.297,0.48,4.629,0.936,6.933,1.356c0.272,0.05,0.452,0.31,0.402,0.581C347.862,197.988,347.651,198.157,347.414,198.157z
					 M333.56,195.262c-0.038,0-0.077-0.004-0.116-0.014c-2.289-0.54-4.603-1.118-6.879-1.718c-0.267-0.07-0.427-0.344-0.356-0.611
					c0.07-0.267,0.342-0.427,0.611-0.356c2.267,0.598,4.573,1.173,6.854,1.712c0.269,0.063,0.435,0.333,0.372,0.602
					C333.992,195.106,333.786,195.262,333.56,195.262z M342.739,194.323c-0.024,0-0.049-0.002-0.074-0.005
					c-0.273-0.041-0.461-0.295-0.421-0.568c0.369-2.471,0.957-4.811,1.747-6.953c0.095-0.259,0.383-0.39,0.642-0.296
					c0.259,0.096,0.392,0.383,0.296,0.642c-0.767,2.079-1.337,4.351-1.696,6.755C343.196,194.145,342.983,194.323,342.739,194.323z
					 M319.874,191.654c-0.046,0-0.094-0.007-0.14-0.02c-2.258-0.658-4.54-1.355-6.781-2.073c-0.263-0.084-0.408-0.366-0.324-0.629
					c0.084-0.263,0.367-0.407,0.629-0.324c2.233,0.715,4.506,1.409,6.756,2.065c0.265,0.077,0.417,0.355,0.34,0.62
					C320.29,191.512,320.09,191.654,319.874,191.654z M403.182,189.075c-0.235,0-0.444-0.166-0.49-0.404
					c-0.378-1.943-1.57-3.829-3.544-5.608c-0.205-0.185-0.222-0.501-0.037-0.706c0.185-0.205,0.501-0.221,0.706-0.037
					c2.138,1.926,3.435,3.999,3.856,6.16c0.053,0.271-0.124,0.533-0.395,0.586C403.246,189.072,403.214,189.075,403.182,189.075z
					 M306.397,187.328c-0.055,0-0.112-0.009-0.167-0.029c-2.276-0.807-4.512-1.645-6.647-2.492
					c-0.257-0.102-0.382-0.393-0.281-0.649c0.102-0.257,0.392-0.383,0.649-0.281c2.123,0.842,4.348,1.676,6.612,2.479
					c0.26,0.092,0.397,0.378,0.304,0.638C306.795,187.2,306.603,187.328,306.397,187.328z M293.242,182.097
					c-0.068,0-0.137-0.014-0.204-0.044c-2.202-0.984-4.359-2.01-6.413-3.052c-0.246-0.125-0.345-0.426-0.22-0.672
					c0.125-0.246,0.426-0.345,0.672-0.22c2.04,1.034,4.182,2.054,6.369,3.031c0.252,0.113,0.365,0.408,0.253,0.66
					C293.616,181.986,293.433,182.097,293.242,182.097z M347.759,181.234c-0.103,0-0.207-0.032-0.297-0.098
					c-0.222-0.164-0.269-0.477-0.105-0.699c1.363-1.844,2.963-3.39,4.757-4.594c0.171-0.115,0.344-0.227,0.518-0.335
					c0.234-0.146,0.543-0.075,0.689,0.16c0.146,0.234,0.075,0.543-0.16,0.689c-0.165,0.103-0.328,0.208-0.49,0.317
					c-1.698,1.14-3.215,2.607-4.51,4.358C348.064,181.164,347.912,181.234,347.759,181.234z M393.631,179.233
					c-0.08,0-0.162-0.019-0.238-0.06c-0.838-0.454-1.663-0.873-2.441-1.258c-1.269-0.628-2.583-1.209-3.906-1.727
					c-0.257-0.101-0.384-0.391-0.283-0.648c0.101-0.258,0.39-0.383,0.648-0.283c1.349,0.528,2.689,1.121,3.985,1.762
					c0.789,0.39,1.625,0.814,2.474,1.275c0.243,0.132,0.333,0.435,0.201,0.678C393.98,179.138,393.808,179.233,393.631,179.233z
					 M280.63,175.681c-0.085,0-0.172-0.022-0.251-0.068c-2.088-1.212-4.118-2.478-6.031-3.762c-0.229-0.154-0.29-0.465-0.137-0.694
					c0.154-0.229,0.464-0.29,0.694-0.137c1.896,1.272,3.907,2.526,5.976,3.728c0.239,0.139,0.32,0.445,0.181,0.683
					C280.97,175.592,280.802,175.681,280.63,175.681z M380.479,174.112c-0.038,0-0.077-0.004-0.116-0.013
					c-2.271-0.539-4.596-0.92-6.909-1.134c-0.275-0.025-0.477-0.269-0.452-0.544c0.025-0.275,0.273-0.476,0.544-0.452
					c2.36,0.218,4.731,0.607,7.048,1.156c0.268,0.064,0.435,0.333,0.371,0.602C380.911,173.957,380.706,174.112,380.479,174.112z
					 M359.427,173.786c-0.225,0-0.43-0.154-0.485-0.382c-0.065-0.269,0.1-0.539,0.368-0.604c1.637-0.396,3.384-0.674,5.339-0.849
					c0.584-0.053,1.169-0.094,1.755-0.125c0.282-0.015,0.511,0.197,0.526,0.473c0.015,0.276-0.197,0.511-0.473,0.526
					c-0.573,0.03-1.146,0.071-1.718,0.122c-1.906,0.17-3.605,0.44-5.193,0.825C359.506,173.781,359.466,173.786,359.427,173.786z
					 M268.898,167.783c-0.108,0-0.217-0.035-0.308-0.107c-1.896-1.487-3.717-3.042-5.413-4.621
					c-0.202-0.188-0.213-0.505-0.025-0.707c0.189-0.202,0.505-0.213,0.707-0.025c1.675,1.56,3.474,3.096,5.348,4.566
					c0.217,0.17,0.255,0.485,0.085,0.702C269.193,167.717,269.047,167.783,268.898,167.783z M258.575,158.129
					c-0.139,0-0.277-0.057-0.376-0.17c-1.583-1.8-3.062-3.69-4.393-5.619c-0.157-0.227-0.1-0.539,0.127-0.695
					c0.227-0.158,0.539-0.1,0.696,0.127c1.31,1.897,2.764,3.756,4.322,5.527c0.182,0.207,0.162,0.523-0.045,0.706
					C258.81,158.088,258.693,158.129,258.575,158.129z M250.572,146.495c-0.181,0-0.356-0.099-0.445-0.271
					c-1.11-2.149-2.061-4.355-2.828-6.558c-0.091-0.261,0.047-0.546,0.308-0.637c0.261-0.092,0.546,0.047,0.636,0.308
					c0.752,2.158,1.684,4.321,2.773,6.428c0.127,0.245,0.031,0.547-0.215,0.674C250.727,146.477,250.649,146.495,250.572,146.495z
					 M245.97,133.166c-0.238,0-0.448-0.17-0.492-0.412c-0.095-0.533-0.181-1.067-0.257-1.604c-0.245-1.74-0.369-3.53-0.369-5.322
					l0.001-0.205c0.001-0.276,0.228-0.508,0.502-0.498c0.276,0.001,0.499,0.226,0.498,0.502l-0.001,0.201
					c0,1.745,0.121,3.489,0.359,5.183c0.074,0.524,0.158,1.047,0.251,1.567c0.049,0.272-0.132,0.532-0.404,0.58
					C246.029,133.163,245.999,133.166,245.97,133.166z M246.02,119.089c-0.03,0-0.06-0.003-0.091-0.008
					c-0.271-0.05-0.451-0.311-0.401-0.582c0.431-2.339,1.068-4.661,1.895-6.9c0.096-0.259,0.383-0.392,0.642-0.296
					c0.259,0.095,0.392,0.383,0.296,0.642c-0.807,2.186-1.429,4.451-1.849,6.735C246.467,118.92,246.257,119.089,246.02,119.089z
					 M250.902,105.876c-0.085,0-0.172-0.022-0.251-0.068c-0.239-0.139-0.32-0.445-0.181-0.684c1.214-2.085,2.609-4.048,4.146-5.836
					c0.18-0.21,0.496-0.233,0.705-0.053c0.21,0.18,0.233,0.496,0.053,0.705c-1.498,1.742-2.857,3.655-4.041,5.687
					C251.242,105.787,251.074,105.876,250.902,105.876z M260.105,95.235c-0.149,0-0.296-0.066-0.395-0.193
					c-0.169-0.218-0.13-0.532,0.088-0.702c1.837-1.429,3.873-2.716,6.052-3.826c0.246-0.126,0.547-0.028,0.672,0.219
					c0.125,0.246,0.027,0.547-0.219,0.672c-2.123,1.081-4.105,2.334-5.892,3.724C260.321,95.2,260.213,95.235,260.105,95.235z
					 M321.557,89.03c-0.002,0-0.004,0-0.007,0c-2.121-0.028-4.381-0.227-7.111-0.626c-0.273-0.04-0.462-0.294-0.422-0.567
					c0.04-0.273,0.294-0.462,0.567-0.422c2.685,0.393,4.903,0.589,6.979,0.615c0.276,0.004,0.497,0.23,0.493,0.507
					C322.053,88.81,321.83,89.03,321.557,89.03z M272.616,88.771c-0.211,0-0.406-0.134-0.475-0.345
					c-0.086-0.262,0.058-0.545,0.32-0.631c2.139-0.699,4.462-1.301,6.904-1.792c0.272-0.053,0.535,0.121,0.589,0.392
					c0.054,0.271-0.121,0.534-0.392,0.589c-2.404,0.483-4.689,1.075-6.79,1.762C272.72,88.763,272.667,88.771,272.616,88.771z
					 M307.538,87.199c-0.03,0-0.061-0.003-0.092-0.008c-2.146-0.399-4.578-0.852-6.956-1.189c-0.273-0.039-0.464-0.292-0.425-0.565
					c0.039-0.273,0.29-0.464,0.565-0.425c2.399,0.34,4.843,0.795,6.999,1.196c0.272,0.051,0.45,0.312,0.4,0.583
					C307.985,87.031,307.775,87.199,307.538,87.199z M286.456,85.911c-0.25,0-0.467-0.188-0.496-0.443
					c-0.031-0.274,0.165-0.522,0.44-0.554c1.273-0.146,2.628-0.277,4.026-0.388c0.889-0.07,1.818-0.106,2.763-0.106l0.328,0.002
					c0.276,0.002,0.498,0.228,0.496,0.505c-0.003,0.276-0.264,0.492-0.504,0.495l-0.32-0.002c-0.919,0-1.822,0.035-2.684,0.103
					c-1.387,0.11-2.729,0.24-3.991,0.385C286.494,85.91,286.475,85.911,286.456,85.911z"/>
				<path style="fill:#407BFF;" d="M283.824,261.1c-0.008,0-0.015,0-0.022,0c-1.192-0.053-2.375-0.135-3.516-0.245
					c-0.275-0.027-0.476-0.271-0.45-0.546c0.027-0.275,0.269-0.476,0.546-0.45c1.124,0.109,2.289,0.19,3.464,0.241
					c0.276,0.012,0.49,0.246,0.478,0.522C284.311,260.89,284.09,261.1,283.824,261.1z"/>
			</g>
			<g style="opacity:0.6;">
				<path style="fill:#FFFFFF;" d="M328.583,88.326c-0.227,0-0.432-0.155-0.486-0.385c-0.063-0.269,0.104-0.538,0.372-0.601
					c1.123-0.264,2.22-0.611,3.258-1.031c0.257-0.103,0.547,0.021,0.651,0.276c0.104,0.256-0.02,0.547-0.276,0.651
					c-1.086,0.439-2.231,0.801-3.404,1.077C328.66,88.322,328.621,88.326,328.583,88.326z"/>
				<path style="fill:#FFFFFF;" d="M291.003,261.075c-0.265,0-0.486-0.208-0.499-0.476c-0.013-0.276,0.199-0.51,0.475-0.524
					c2.314-0.112,4.673-0.326,7.009-0.633c0.272-0.037,0.525,0.156,0.561,0.43c0.036,0.274-0.156,0.525-0.43,0.561
					c-2.363,0.311-4.749,0.527-7.09,0.641C291.02,261.075,291.012,261.075,291.003,261.075z M305.026,259.23
					c-0.23,0-0.438-0.16-0.488-0.394c-0.058-0.27,0.113-0.536,0.383-0.595c2.354-0.509,4.641-1.113,6.798-1.794
					c0.263-0.083,0.544,0.063,0.627,0.326c0.083,0.263-0.063,0.544-0.326,0.627c-2.186,0.69-4.504,1.302-6.888,1.818
					C305.096,259.227,305.06,259.23,305.026,259.23z M318.482,254.909c-0.19,0-0.371-0.108-0.455-0.292
					c-0.115-0.251-0.004-0.548,0.247-0.663c1.824-0.833,3.468-1.727,4.887-2.658c0.396-0.26,0.792-0.524,1.185-0.793
					c0.229-0.156,0.539-0.097,0.695,0.131c0.155,0.228,0.097,0.539-0.131,0.695c-0.398,0.272-0.799,0.539-1.2,0.803
					c-1.461,0.958-3.15,1.877-5.02,2.731C318.622,254.895,318.552,254.909,318.482,254.909z M330.248,247.119
					c-0.14,0-0.279-0.059-0.378-0.173c-0.181-0.209-0.158-0.525,0.051-0.705c1.856-1.608,3.51-3.279,4.914-4.968
					c0.177-0.212,0.492-0.241,0.704-0.065c0.212,0.177,0.241,0.492,0.065,0.704c-1.439,1.731-3.131,3.441-5.028,5.085
					C330.48,247.079,330.364,247.119,330.248,247.119z M339.138,236.218c-0.077,0-0.155-0.018-0.228-0.055
					c-0.246-0.126-0.343-0.427-0.217-0.673c0.323-0.63,0.623-1.275,0.892-1.918c0.607-1.449,1.113-2.997,1.503-4.6
					c0.065-0.268,0.337-0.433,0.604-0.367c0.268,0.065,0.433,0.336,0.367,0.604c-0.403,1.654-0.925,3.252-1.552,4.75
					c-0.279,0.666-0.59,1.335-0.924,1.987C339.495,236.119,339.32,236.218,339.138,236.218z M342.609,222.598
					c-0.011,0-0.023,0-0.034-0.001c-0.275-0.019-0.484-0.257-0.465-0.532c0.092-1.364,0.137-2.802,0.137-4.397
					c0-0.875-0.014-1.752-0.036-2.631c-0.007-0.276,0.211-0.506,0.487-0.513c0.278-0.027,0.506,0.21,0.513,0.487
					c0.023,0.887,0.037,1.773,0.037,2.656c0,1.617-0.045,3.078-0.139,4.464C343.09,222.396,342.87,222.598,342.609,222.598z
					 M342.417,208.453c-0.266,0-0.487-0.209-0.499-0.478c-0.091-2.034-0.176-4.216-0.176-6.399l0.003-0.702
					c0.002-0.276,0.193-0.516,0.504-0.496c0.276,0.002,0.498,0.228,0.496,0.504l-0.003,0.695c0,2.162,0.084,4.332,0.175,6.354
					c0.012,0.276-0.201,0.509-0.477,0.522C342.433,208.452,342.425,208.453,342.417,208.453z M385.173,202.293
					c-0.909,0-1.799-0.023-2.654-0.061c-0.276-0.012-0.49-0.245-0.478-0.521c0.012-0.276,0.246-0.49,0.521-0.478
					c0.841,0.037,1.716,0.06,2.611,0.06c1.569,0,3.044-0.074,4.385-0.218c0.273-0.031,0.521,0.169,0.551,0.443
					c0.03,0.275-0.169,0.521-0.443,0.551C388.29,202.217,386.778,202.293,385.173,202.293z M375.478,201.784
					c-0.013,0-0.026,0-0.039-0.001c-2.344-0.18-4.719-0.394-7.062-0.635c-0.275-0.028-0.474-0.274-0.446-0.549
					c0.028-0.275,0.272-0.479,0.549-0.446c2.334,0.24,4.701,0.453,7.036,0.633c0.275,0.021,0.481,0.261,0.46,0.537
					C375.956,201.585,375.737,201.784,375.478,201.784z M396.45,200.352c-0.19,0-0.372-0.109-0.456-0.294
					c-0.114-0.251-0.002-0.548,0.249-0.662c2.245-1.017,3.956-2.469,5.085-4.317c0.144-0.236,0.451-0.31,0.688-0.166
					c0.236,0.144,0.31,0.452,0.166,0.688c-1.236,2.022-3.095,3.605-5.526,4.706C396.589,200.338,396.519,200.352,396.45,200.352z
					 M361.4,200.334c-0.022,0-0.043-0.001-0.065-0.004c-2.329-0.301-4.691-0.637-7.02-1c-0.273-0.042-0.46-0.298-0.417-0.571
					c0.043-0.273,0.297-0.459,0.571-0.417c2.32,0.361,4.674,0.696,6.994,0.996c0.274,0.035,0.467,0.286,0.432,0.56
					C361.862,200.15,361.647,200.334,361.4,200.334z M347.414,198.157c-0.03,0-0.06-0.003-0.09-0.008
					c-2.312-0.421-4.654-0.879-6.959-1.361c-0.27-0.057-0.444-0.322-0.387-0.592c0.057-0.27,0.322-0.442,0.592-0.387
					c2.297,0.48,4.629,0.936,6.933,1.356c0.272,0.05,0.452,0.31,0.402,0.581C347.862,197.988,347.651,198.157,347.414,198.157z
					 M333.56,195.262c-0.038,0-0.077-0.004-0.116-0.014c-2.289-0.54-4.603-1.118-6.879-1.718c-0.267-0.07-0.427-0.344-0.356-0.611
					c0.07-0.267,0.342-0.427,0.611-0.356c2.267,0.598,4.573,1.173,6.854,1.712c0.269,0.063,0.435,0.333,0.372,0.602
					C333.992,195.106,333.786,195.262,333.56,195.262z M342.739,194.323c-0.024,0-0.049-0.002-0.074-0.005
					c-0.273-0.041-0.461-0.295-0.421-0.568c0.369-2.471,0.957-4.811,1.747-6.953c0.095-0.259,0.383-0.39,0.642-0.296
					c0.259,0.096,0.392,0.383,0.296,0.642c-0.767,2.079-1.337,4.351-1.696,6.755C343.196,194.145,342.983,194.323,342.739,194.323z
					 M319.874,191.654c-0.046,0-0.094-0.007-0.14-0.02c-2.258-0.658-4.54-1.355-6.781-2.073c-0.263-0.084-0.408-0.366-0.324-0.629
					c0.084-0.263,0.367-0.407,0.629-0.324c2.233,0.715,4.506,1.409,6.756,2.065c0.265,0.077,0.417,0.355,0.34,0.62
					C320.29,191.512,320.09,191.654,319.874,191.654z M403.182,189.075c-0.235,0-0.444-0.166-0.49-0.404
					c-0.378-1.943-1.57-3.829-3.544-5.608c-0.205-0.185-0.222-0.501-0.037-0.706c0.185-0.205,0.501-0.221,0.706-0.037
					c2.138,1.926,3.435,3.999,3.856,6.16c0.053,0.271-0.124,0.533-0.395,0.586C403.246,189.072,403.214,189.075,403.182,189.075z
					 M306.397,187.328c-0.055,0-0.112-0.009-0.167-0.029c-2.276-0.807-4.512-1.645-6.647-2.492
					c-0.257-0.102-0.382-0.393-0.281-0.649c0.102-0.257,0.392-0.383,0.649-0.281c2.123,0.842,4.348,1.676,6.612,2.479
					c0.26,0.092,0.397,0.378,0.304,0.638C306.795,187.2,306.603,187.328,306.397,187.328z M293.242,182.097
					c-0.068,0-0.137-0.014-0.204-0.044c-2.202-0.984-4.359-2.01-6.413-3.052c-0.246-0.125-0.345-0.426-0.22-0.672
					c0.125-0.246,0.426-0.345,0.672-0.22c2.04,1.034,4.182,2.054,6.369,3.031c0.252,0.113,0.365,0.408,0.253,0.66
					C293.616,181.986,293.433,182.097,293.242,182.097z M347.759,181.234c-0.103,0-0.207-0.032-0.297-0.098
					c-0.222-0.164-0.269-0.477-0.105-0.699c1.363-1.844,2.963-3.39,4.757-4.594c0.171-0.115,0.344-0.227,0.518-0.335
					c0.234-0.146,0.543-0.075,0.689,0.16c0.146,0.234,0.075,0.543-0.16,0.689c-0.165,0.103-0.328,0.208-0.49,0.317
					c-1.698,1.14-3.215,2.607-4.51,4.358C348.064,181.164,347.912,181.234,347.759,181.234z M393.631,179.233
					c-0.08,0-0.162-0.019-0.238-0.06c-0.838-0.454-1.663-0.873-2.441-1.258c-1.269-0.628-2.583-1.209-3.906-1.727
					c-0.257-0.101-0.384-0.391-0.283-0.648c0.101-0.258,0.39-0.383,0.648-0.283c1.349,0.528,2.689,1.121,3.985,1.762
					c0.789,0.39,1.625,0.814,2.474,1.275c0.243,0.132,0.333,0.435,0.201,0.678C393.98,179.138,393.808,179.233,393.631,179.233z
					 M280.63,175.681c-0.085,0-0.172-0.022-0.251-0.068c-2.088-1.212-4.118-2.478-6.031-3.762c-0.229-0.154-0.29-0.465-0.137-0.694
					c0.154-0.229,0.464-0.29,0.694-0.137c1.896,1.272,3.907,2.526,5.976,3.728c0.239,0.139,0.32,0.445,0.181,0.683
					C280.97,175.592,280.802,175.681,280.63,175.681z M380.479,174.112c-0.038,0-0.077-0.004-0.116-0.013
					c-2.271-0.539-4.596-0.92-6.909-1.134c-0.275-0.025-0.477-0.269-0.452-0.544c0.025-0.275,0.273-0.476,0.544-0.452
					c2.36,0.218,4.731,0.607,7.048,1.156c0.268,0.064,0.435,0.333,0.371,0.602C380.911,173.957,380.706,174.112,380.479,174.112z
					 M359.427,173.786c-0.225,0-0.43-0.154-0.485-0.382c-0.065-0.269,0.1-0.539,0.368-0.604c1.637-0.396,3.384-0.674,5.339-0.849
					c0.584-0.053,1.169-0.094,1.755-0.125c0.282-0.015,0.511,0.197,0.526,0.473c0.015,0.276-0.197,0.511-0.473,0.526
					c-0.573,0.03-1.146,0.071-1.718,0.122c-1.906,0.17-3.605,0.44-5.193,0.825C359.506,173.781,359.466,173.786,359.427,173.786z
					 M268.898,167.783c-0.108,0-0.217-0.035-0.308-0.107c-1.896-1.487-3.717-3.042-5.413-4.621
					c-0.202-0.188-0.213-0.505-0.025-0.707c0.189-0.202,0.505-0.213,0.707-0.025c1.675,1.56,3.474,3.096,5.348,4.566
					c0.217,0.17,0.255,0.485,0.085,0.702C269.193,167.717,269.047,167.783,268.898,167.783z M258.575,158.129
					c-0.139,0-0.277-0.057-0.376-0.17c-1.583-1.8-3.062-3.69-4.393-5.619c-0.157-0.227-0.1-0.539,0.127-0.695
					c0.227-0.158,0.539-0.1,0.696,0.127c1.31,1.897,2.764,3.756,4.322,5.527c0.182,0.207,0.162,0.523-0.045,0.706
					C258.81,158.088,258.693,158.129,258.575,158.129z M250.572,146.495c-0.181,0-0.356-0.099-0.445-0.271
					c-1.11-2.149-2.061-4.355-2.828-6.558c-0.091-0.261,0.047-0.546,0.308-0.637c0.261-0.092,0.546,0.047,0.636,0.308
					c0.752,2.158,1.684,4.321,2.773,6.428c0.127,0.245,0.031,0.547-0.215,0.674C250.727,146.477,250.649,146.495,250.572,146.495z
					 M245.97,133.166c-0.238,0-0.448-0.17-0.492-0.412c-0.095-0.533-0.181-1.067-0.257-1.604c-0.245-1.74-0.369-3.53-0.369-5.322
					l0.001-0.205c0.001-0.276,0.228-0.508,0.502-0.498c0.276,0.001,0.499,0.226,0.498,0.502l-0.001,0.201
					c0,1.745,0.121,3.489,0.359,5.183c0.074,0.524,0.158,1.047,0.251,1.567c0.049,0.272-0.132,0.532-0.404,0.58
					C246.029,133.163,245.999,133.166,245.97,133.166z M246.02,119.089c-0.03,0-0.06-0.003-0.091-0.008
					c-0.271-0.05-0.451-0.311-0.401-0.582c0.431-2.339,1.068-4.661,1.895-6.9c0.096-0.259,0.383-0.392,0.642-0.296
					c0.259,0.095,0.392,0.383,0.296,0.642c-0.807,2.186-1.429,4.451-1.849,6.735C246.467,118.92,246.257,119.089,246.02,119.089z
					 M250.902,105.876c-0.085,0-0.172-0.022-0.251-0.068c-0.239-0.139-0.32-0.445-0.181-0.684c1.214-2.085,2.609-4.048,4.146-5.836
					c0.18-0.21,0.496-0.233,0.705-0.053c0.21,0.18,0.233,0.496,0.053,0.705c-1.498,1.742-2.857,3.655-4.041,5.687
					C251.242,105.787,251.074,105.876,250.902,105.876z M260.105,95.235c-0.149,0-0.296-0.066-0.395-0.193
					c-0.169-0.218-0.13-0.532,0.088-0.702c1.837-1.429,3.873-2.716,6.052-3.826c0.246-0.126,0.547-0.028,0.672,0.219
					c0.125,0.246,0.027,0.547-0.219,0.672c-2.123,1.081-4.105,2.334-5.892,3.724C260.321,95.2,260.213,95.235,260.105,95.235z
					 M321.557,89.03c-0.002,0-0.004,0-0.007,0c-2.121-0.028-4.381-0.227-7.111-0.626c-0.273-0.04-0.462-0.294-0.422-0.567
					c0.04-0.273,0.294-0.462,0.567-0.422c2.685,0.393,4.903,0.589,6.979,0.615c0.276,0.004,0.497,0.23,0.493,0.507
					C322.053,88.81,321.83,89.03,321.557,89.03z M272.616,88.771c-0.211,0-0.406-0.134-0.475-0.345
					c-0.086-0.262,0.058-0.545,0.32-0.631c2.139-0.699,4.462-1.301,6.904-1.792c0.272-0.053,0.535,0.121,0.589,0.392
					c0.054,0.271-0.121,0.534-0.392,0.589c-2.404,0.483-4.689,1.075-6.79,1.762C272.72,88.763,272.667,88.771,272.616,88.771z
					 M307.538,87.199c-0.03,0-0.061-0.003-0.092-0.008c-2.146-0.399-4.578-0.852-6.956-1.189c-0.273-0.039-0.464-0.292-0.425-0.565
					c0.039-0.273,0.29-0.464,0.565-0.425c2.399,0.34,4.843,0.795,6.999,1.196c0.272,0.051,0.45,0.312,0.4,0.583
					C307.985,87.031,307.775,87.199,307.538,87.199z M286.456,85.911c-0.25,0-0.467-0.188-0.496-0.443
					c-0.031-0.274,0.165-0.522,0.44-0.554c1.273-0.146,2.628-0.277,4.026-0.388c0.889-0.07,1.818-0.106,2.763-0.106l0.328,0.002
					c0.276,0.002,0.498,0.228,0.496,0.505c-0.003,0.276-0.264,0.492-0.504,0.495l-0.32-0.002c-0.919,0-1.822,0.035-2.684,0.103
					c-1.387,0.11-2.729,0.24-3.991,0.385C286.494,85.91,286.475,85.911,286.456,85.911z"/>
				<path style="fill:#FFFFFF;" d="M283.824,261.1c-0.008,0-0.015,0-0.022,0c-1.192-0.053-2.375-0.135-3.516-0.245
					c-0.275-0.027-0.476-0.271-0.45-0.546c0.027-0.275,0.269-0.476,0.546-0.45c1.124,0.109,2.289,0.19,3.464,0.241
					c0.276,0.012,0.49,0.246,0.478,0.522C284.311,260.89,284.09,261.1,283.824,261.1z"/>
			</g>
		</g>
	</g>
</g>
</svg>
