<svg width="673" height="637" viewBox="0 0 673 637" fill="none" xmlns="http://www.w3.org/2000/svg">
<g clip-path="url(#clip0_580_878)">
<path fill-rule="evenodd" clip-rule="evenodd" d="M116.178 221.24C109.93 217.855 104.632 212.797 102.441 205.681C96.1275 185.178 125.612 178.831 134.911 186.817C144.209 194.803 153.443 220.608 147.153 225.108C144.644 226.903 138.03 227.437 130.583 226.13L144.739 251.488L122.353 260.139L116.178 221.24Z" fill="#B28B67"/>
<path fill-rule="evenodd" clip-rule="evenodd" d="M90.1131 202.807C89.1132 202.37 88.3235 201.5 87.6071 200.661C86.8629 199.789 86.1247 198.903 85.4837 197.944C84.2029 196.027 83.2661 193.616 84.1332 191.409C84.8287 189.638 86.4034 188.356 88.0164 187.587C89.091 187.074 90.2883 186.789 91.4848 186.728C92.6718 186.667 93.8464 187.006 95.0329 187.04C94.1982 184.764 93.6713 182.249 94.0723 179.875C94.4583 177.591 95.8152 175.869 97.7128 174.819C99.6604 173.741 101.878 173.437 104.104 173.721C104.661 173.792 105.219 173.877 105.77 174.004C106.232 174.11 106.728 174.261 107.196 174.196C107.718 174.124 107.849 173.755 108.025 173.286C108.232 172.735 108.503 172.216 108.815 171.728C110.191 169.571 112.49 168.015 115.046 168.001C116.223 167.995 117.477 168.272 118.527 168.917C119.462 169.491 120.404 170.612 121.481 170.848C121.937 170.949 122.071 170.53 122.311 170.166C122.671 169.62 122.994 169.046 123.364 168.506C123.884 167.749 124.509 167.091 125.256 166.584C126.348 165.843 128.032 165.267 128.982 166.706C129.339 167.247 129.484 167.916 129.672 168.527C129.931 169.366 130.187 170.205 130.431 171.048C130.616 171.688 130.779 172.313 130.898 172.966C130.961 173.314 130.999 173.994 131.263 174.265C131.594 174.603 132.306 174.063 132.654 173.944C133.341 173.711 134.067 173.567 134.804 173.614C135.375 173.651 136.012 173.784 136.431 174.26C136.689 174.553 136.791 174.916 136.868 175.29C136.959 175.739 137.127 175.931 137.345 176.336C138.08 175.538 140.844 173.327 141.87 174.802C142.211 175.293 142.147 176.022 142.095 176.568C142.003 177.525 141.759 178.461 141.491 179.369C140.931 181.261 140.075 183.037 139.048 184.671C141.029 184.769 142.328 186.816 141.374 188.702C140.953 189.535 140.134 190.001 139.304 190.279C139.001 190.381 138.526 190.432 138.311 190.575C138.196 190.652 138.102 190.811 137.931 190.891C136.811 191.414 135.405 191.639 134.182 191.818C132.001 192.138 129.737 191.921 127.628 191.074C127.087 190.857 126.677 190.77 126.144 190.982C125.677 191.168 125.266 191.474 124.802 191.667C123.575 192.178 122.224 192.004 120.917 192.045C121.447 193.627 121.666 195.511 121.571 197.155C121.493 198.496 120.474 199.081 119.448 199.592C116.169 201.227 112.615 202.19 109.21 203.511C112.796 202.982 116.324 201.972 119.932 201.586C121.563 201.412 120.82 202.844 120.455 203.778C119.853 205.318 119.624 207.025 119.661 208.717C117.235 207.237 113.847 206.953 111.57 208.576C109.054 210.369 108.547 214.904 111.381 216.929C113.026 218.104 115.133 217.989 116.952 218.064C116.226 219.797 116.653 221.776 116.529 223.63C116.468 224.544 116.3 225.616 115.598 226.198C115.338 226.413 114.991 226.557 114.85 226.891C114.675 227.305 114.735 227.669 114.463 228.072C113.376 229.679 111.024 230.497 109.185 229.657C107.523 228.898 107.087 226.849 107.604 225.228C105.766 225.18 102.552 225.446 102.228 222.735C98.7086 223.834 88.226 221.488 91.2602 215.641C88.1805 215.19 84.5092 212.596 84.9435 208.891C85.278 206.038 87.7761 203.855 90.1131 202.807Z" fill="#191847"/>
</g>
<path fill-rule="evenodd" clip-rule="evenodd" d="M126.566 343.895L179.733 477.941L215.392 591.266H229.473L174.958 343.895L126.566 343.895Z" fill="#997659"/>
<path fill-rule="evenodd" clip-rule="evenodd" d="M115.86 343.895C115.294 391 107.038 454.419 105.719 457.355C104.839 459.312 74.4807 484.205 14.6431 532.034L24.3414 542.373C94.9443 501.365 131.879 478.127 135.146 472.658C140.047 464.454 156.002 388.959 168.812 343.895H115.86Z" fill="#B28B67"/>
<path fill-rule="evenodd" clip-rule="evenodd" d="M13.282 528.562C10.0249 529.713 7.78114 530.805 6.55081 531.838C5.05445 533.093 3.08006 535.175 0.627638 538.082C2.08422 539.818 15.1748 555.419 39.8993 584.884C44.9406 582.727 46.5221 580.203 44.644 577.314C42.7658 574.424 41.2288 572.005 40.0328 570.055L31.4774 540.164C31.3128 539.589 30.7131 539.256 30.1379 539.421C30.1281 539.424 30.1183 539.427 30.1085 539.43L25.5434 540.878C22.3761 539.402 20.1562 537.905 18.8836 536.389C17.8496 535.156 16.9194 533.037 16.0928 530.031C15.7757 528.877 14.5833 528.199 13.4296 528.516C13.3799 528.53 13.3306 528.545 13.282 528.562Z" fill="#303030"/>
<path fill-rule="evenodd" clip-rule="evenodd" d="M209.626 586.14C208.414 589.375 207.808 591.796 207.808 593.402C207.808 595.355 208.134 598.206 208.784 601.953C211.05 601.953 231.416 601.953 269.88 601.953C271.468 596.705 270.551 593.871 267.131 593.452C263.71 593.034 260.868 592.656 258.606 592.319L230.209 579.659C229.663 579.416 229.022 579.661 228.779 580.208C228.775 580.217 228.771 580.226 228.767 580.236L226.941 584.664C223.775 586.141 221.201 586.88 219.222 586.88C217.613 586.88 215.392 586.23 212.557 584.931C211.47 584.432 210.184 584.91 209.685 585.997C209.664 586.044 209.644 586.092 209.626 586.14Z" fill="#303030"/>
<path fill-rule="evenodd" clip-rule="evenodd" d="M162.313 579.593L229.261 572.355L179.644 343.895H119.681L162.313 579.593Z" fill="#C7DCED"/>
<path fill-rule="evenodd" clip-rule="evenodd" d="M28.4912 515.355L72.4052 567.134C118.659 516.811 145.625 483.976 153.303 468.628C160.981 453.28 167.884 411.702 174.01 343.895H106.503C103.156 403.549 100.901 434.763 99.7355 437.539C98.5704 440.315 74.8223 466.254 28.4912 515.355Z" fill="#DFEDF9"/>
<path fill-rule="evenodd" clip-rule="evenodd" d="M209.487 319.041L247.899 337.905C257.565 338.756 265.819 340.479 272.662 343.076C274.358 344.144 276.6 346.518 270.452 347.124C264.304 347.729 257.864 348.641 257.39 350.847C256.916 353.054 261.021 354.869 259.819 357.945C259.018 359.996 252.87 356.292 241.376 346.833L205.227 338.87L209.487 319.041ZM78.9876 342.936L101.296 339.092C95.3274 385.735 92.0333 410.506 91.4133 413.405C90.0182 419.928 96.8764 428.277 99.9887 432.866C93.2845 437.388 91.9443 425.254 83.5157 431.121C75.8225 436.476 70.6892 444.627 59.963 440.391C58.6442 439.87 56.8553 437.349 59.6267 434.644C66.5314 427.905 76.1896 416.537 77.1739 413.183C78.5161 408.608 79.1207 385.192 78.9876 342.936Z" fill="#B28B67"/>
<path fill-rule="evenodd" clip-rule="evenodd" d="M125.927 238.683L134.874 235.482C174.287 258.868 198.311 312.909 245.542 335.453L237.64 349.688C163.28 353.554 133.085 287.794 125.927 238.683Z" fill="#02559C"/>
<path fill-rule="evenodd" clip-rule="evenodd" d="M106.055 361.126C143.042 354.605 170.248 349.807 187.675 346.734C191.405 346.077 189.757 340.842 188.741 338.233C177.016 308.121 146.794 278.762 138.961 234.337L114.77 234.815C100.792 269.413 100.823 308.97 106.055 361.126Z" fill="#DDE3E9"/>
<path fill-rule="evenodd" clip-rule="evenodd" d="M90.7746 270.631C87.1828 270.256 84.0728 268.452 81.4446 265.22C70.1153 251.287 71.723 242.233 80.426 237.815C89.129 233.397 98.3455 237.711 112.997 235.127C113.794 234.987 114.533 234.908 115.213 234.89L122.657 234.009C156.378 301.594 170.599 348.144 165.321 373.661L101.08 384.988C98.8311 394.491 96.4991 402.564 94.084 409.207L76.5794 412.293C65.5859 359.579 70.3176 312.359 90.7746 270.631Z" fill="#0071D2"/>
<path fill-rule="evenodd" clip-rule="evenodd" d="M108.611 345.897C113.598 362.362 119.034 373.991 124.921 380.785L101.08 384.988C103.704 373.904 106.214 360.873 108.611 345.897Z" fill="black" fill-opacity="0.1"/>
<path d="M673 597.5C673 619.315 594.65 637 498 637C401.35 637 323 619.315 323 597.5C323 575.685 401.35 558 498 558C594.65 558 673 575.685 673 597.5Z" fill="url(#paint0_radial_580_878)"/>
<path d="M434.148 416.902C436.043 421.203 439.448 424.911 444.372 428.02C449.263 431.129 454.311 431.989 459.486 430.588C471.55 427.324 476.535 419.12 474.455 405.994L430.942 85.3135C430.146 79.6333 428.393 71.78 425.687 61.7812C421.489 46.271 412.34 33.5959 398.196 23.7247C384.067 13.8724 367.18 11.6094 347.539 16.9247C327.189 22.432 313.641 33.1171 306.848 48.9929C299.968 64.5525 298.577 79.9064 302.681 95.0703C305.2 104.378 307.622 112.039 309.989 118.047L434.148 416.902Z" fill="#0071D2"/>
<path d="M520.853 481.047C505.965 472.502 489.549 470.645 471.637 475.493C454.072 480.246 440.882 490.311 432.081 505.628C423.282 520.955 421.223 537.22 425.885 554.45C430.361 570.987 440.345 584.004 455.859 593.493C471.279 602.638 487.785 604.818 505.348 600.065C522.914 595.311 536.092 585.284 544.909 569.941C553.694 554.638 555.721 538.176 550.964 520.601C546.208 503.024 536.161 489.85 520.853 481.047Z" fill="#0071D2"/>
<defs>
<radialGradient id="paint0_radial_580_878" cx="0" cy="0" r="1" gradientUnits="userSpaceOnUse" gradientTransform="translate(498 597.5) scale(175 39.5)">
<stop offset="0.0239999" stop-color="#3C3C3C"/>
<stop offset="0.329" stop-color="#9A9A9A"/>
<stop offset="0.584" stop-color="#D8D8D8"/>
<stop offset="0.769" stop-color="#EDEDED"/>
<stop offset="0.879049" stop-color="#F3F3F3"/>
<stop offset="1" stop-color="white"/>
</radialGradient>
<clipPath id="clip0_580_878">
<rect width="66" height="89" fill="white" transform="translate(74.4146 183.25) rotate(-21.1284)"/>
</clipPath>
</defs>
</svg>
